%TF.GenerationSoftware,KiCad,Pcbnew,10.0.4*%
%TF.CreationDate,2026-07-11T16:35:52+08:00*%
%TF.ProjectId,Project_01_First_LED,50726f6a-6563-4745-9f30-315f46697273,rev?*%
%TF.SameCoordinates,Original*%
%TF.FileFunction,Copper,L1,Top*%
%TF.FilePolarity,Positive*%
%FSLAX46Y46*%
G04 Gerber Fmt 4.6, Leading zero omitted, Abs format (unit mm)*
G04 Created by KiCad (PCBNEW 10.0.4) date 2026-07-11 16:35:52*
%MOMM*%
%LPD*%
G01*
G04 APERTURE LIST*
G04 Aperture macros list*
%AMRoundRect*
0 Rectangle with rounded corners*
0 $1 Rounding radius*
0 $2 $3 $4 $5 $6 $7 $8 $9 X,Y pos of 4 corners*
0 Add a 4 corners polygon primitive as box body*
4,1,4,$2,$3,$4,$5,$6,$7,$8,$9,$2,$3,0*
0 Add four circle primitives for the rounded corners*
1,1,$1+$1,$2,$3*
1,1,$1+$1,$4,$5*
1,1,$1+$1,$6,$7*
1,1,$1+$1,$8,$9*
0 Add four rect primitives between the rounded corners*
20,1,$1+$1,$2,$3,$4,$5,0*
20,1,$1+$1,$4,$5,$6,$7,0*
20,1,$1+$1,$6,$7,$8,$9,0*
20,1,$1+$1,$8,$9,$2,$3,0*%
G04 Aperture macros list end*
%TA.AperFunction,ComponentPad*%
%ADD10C,1.600000*%
%TD*%
%TA.AperFunction,ComponentPad*%
%ADD11R,1.270000X1.270000*%
%TD*%
%TA.AperFunction,ComponentPad*%
%ADD12RoundRect,0.250000X0.550000X-0.550000X0.550000X0.550000X-0.550000X0.550000X-0.550000X-0.550000X0*%
%TD*%
%TA.AperFunction,ComponentPad*%
%ADD13R,1.800000X1.800000*%
%TD*%
%TA.AperFunction,ComponentPad*%
%ADD14C,1.800000*%
%TD*%
%TA.AperFunction,ComponentPad*%
%ADD15R,1.700000X1.700000*%
%TD*%
%TA.AperFunction,ComponentPad*%
%ADD16C,1.700000*%
%TD*%
%TA.AperFunction,ViaPad*%
%ADD17C,0.600000*%
%TD*%
%TA.AperFunction,Conductor*%
%ADD18C,0.400000*%
%TD*%
G04 APERTURE END LIST*
D10*
%TO.P,R2,2*%
%TO.N,Net-(U1-DISCH)*%
X126690000Y-116000000D03*
%TO.P,R2,1*%
%TO.N,+5V*%
X119070000Y-116000000D03*
%TD*%
%TO.P,C2,2*%
%TO.N,Net-(U1-CONT)*%
X135380000Y-85500000D03*
%TO.P,C2,1*%
%TO.N,GND*%
X135380000Y-80500000D03*
%TD*%
D11*
%TO.P,U1,7,DISCH_7*%
%TO.N,Net-(U1-DISCH)*%
X135260000Y-102000000D03*
%TO.P,U1,6,THRES_6*%
%TO.N,Net-(U1-THRES)*%
X135260000Y-96920000D03*
%TO.P,U1,8,VCC_8*%
%TO.N,+5V*%
X135260000Y-107080000D03*
%TO.P,U1,5,CONT_5*%
%TO.N,Net-(U1-CONT)*%
X135260000Y-91840000D03*
%TO.P,U1,4,RESET_4*%
%TO.N,+5V*%
X150500000Y-91840000D03*
%TO.P,U1,3,OUT_3*%
%TO.N,Net-(U1-OUT)*%
X150500000Y-96920000D03*
%TO.P,U1,2,TRIG_2*%
%TO.N,Net-(U1-THRES)*%
X150500000Y-102000000D03*
%TO.P,U1,1,GND_1*%
%TO.N,GND*%
X150500000Y-107080000D03*
%TD*%
D10*
%TO.P,R3,1*%
%TO.N,Net-(U1-DISCH)*%
X118570000Y-111500000D03*
%TO.P,R3,2*%
%TO.N,Net-(U1-THRES)*%
X118570000Y-103880000D03*
%TD*%
D12*
%TO.P,C1,1*%
%TO.N,Net-(U1-THRES)*%
X117880000Y-98000000D03*
D10*
%TO.P,C1,2*%
%TO.N,GND*%
X117880000Y-96000000D03*
%TD*%
D13*
%TO.P,D1,1,K_1*%
%TO.N,GND*%
X166380000Y-109350000D03*
D14*
%TO.P,D1,2,A_2*%
%TO.N,Net-(D1-A)*%
X166380000Y-106810000D03*
%TD*%
D10*
%TO.P,R1,1*%
%TO.N,Net-(U1-OUT)*%
X166380000Y-94690000D03*
%TO.P,R1,2*%
%TO.N,Net-(D1-A)*%
X166380000Y-102310000D03*
%TD*%
D15*
%TO.P,J1,1,Pin_1_1*%
%TO.N,+5V*%
X109880000Y-91775000D03*
D16*
%TO.P,J1,2,Pin_2_2*%
%TO.N,GND*%
X109880000Y-89235000D03*
%TD*%
D17*
%TO.N,+5V*%
X157880000Y-104500000D03*
X135380000Y-120000000D03*
%TD*%
%TO.N,Net-(U1-OUT)*%
D18*
X164150000Y-96920000D02*
X150500000Y-96920000D01*
X164150000Y-96920000D02*
X166380000Y-94690000D01*
%TO.N,+5V*%
X137840000Y-104500000D02*
X157880000Y-104500000D01*
X135260000Y-107080000D02*
X137840000Y-104500000D01*
%TO.N,Net-(U1-THRES)*%
X145420000Y-96920000D02*
X150500000Y-102000000D01*
X135260000Y-96920000D02*
X145420000Y-96920000D01*
X117880000Y-98000000D02*
X134180000Y-98000000D01*
X134180000Y-98000000D02*
X135260000Y-96920000D01*
%TO.N,+5V*%
X123070000Y-120000000D02*
X135380000Y-120000000D01*
X119070000Y-116000000D02*
X123070000Y-120000000D01*
%TO.N,Net-(U1-DISCH)*%
X122190000Y-111500000D02*
X126690000Y-116000000D01*
X118570000Y-111500000D02*
X122190000Y-111500000D01*
%TD*%
M02*
